<svg xmlns="http://www.w3.org/2000/svg" viewBox="0 0 1440 500">
  <path fill="#313547" fill-opacity="1" d="M0,96L26.7,90.7C53.3,85,107,75,160,69.3C213.3,64,267,64,320,96C373.3,128,427,192,480,224C533.3,256,587,256,640,224C693.3,192,747,128,800,112C853.3,96,907,128,960,149.3C1013.3,171,1067,181,1120,186.7C1173.3,192,1227,192,1280,181.3C1333.3,171,1387,149,1413,138.7L1440,128L1440,500L1413.3,500C1386.7,500,1333,500,1280,500C1226.7,500,1173,500,1120,500C1066.7,500,1013,500,960,500C906.7,500,853,500,800,500C746.7,500,693,500,500,500C586.7,500,533,500,480,500C426.7,500,373,500,500,500C266.7,500,213,500,160,500C106.7,500,53,500,27,500L0,500Z"></path>
</svg>