<svg xmlns="http://www.w3.org/2000/svg" viewBox="0 0 1440 320">
  <path fill="#313547" fill-opacity="1" d="M0,96L26.7,90.7C53.3,85,107,75,160,69.3C213.3,64,267,64,320,96C373.3,128,427,192,480,224C533.3,256,587,256,640,224C693.3,192,747,128,800,112C853.3,96,907,128,960,149.3C1013.3,171,1067,181,1120,186.7C1173.3,192,1227,192,1280,181.3C1333.3,171,1387,149,1413,138.7L1440,128L1440,320L1413.3,320C1386.7,320,1333,320,1280,320C1226.7,320,1173,320,1120,320C1066.7,320,1013,320,960,320C906.7,320,853,320,800,320C746.7,320,693,320,640,320C586.7,320,533,320,480,320C426.7,320,373,320,320,320C266.7,320,213,320,160,320C106.7,320,53,320,27,320L0,320Z"></path>
</svg>